<?xml version="1.0" encoding="utf-8"?>
<!-- Generator: Adobe Illustrator 27.0.1, SVG Export Plug-In . SVG Version: 6.00 Build 0)  -->
<svg version="1.1" id="Laag_1" xmlns="http://www.w3.org/2000/svg" xmlns:xlink="http://www.w3.org/1999/xlink" x="0px" y="0px"
	 viewBox="0 0 682.93 405.69" style="enable-background:new 0 0 682.93 405.69;" xml:space="preserve">
<style type="text/css">
	.st0{fill:#DF0613;}
	.st1{fill:#312780;}
</style>
<g>
	<g>
		<polygon class="st0" points="38.65,203.36 0,242.01 0,120.73 38.65,82.08 		"/>
		<polygon class="st0" points="189.02,52.99 242.01,0 120.73,0 67.74,52.99 		"/>
		<polyline class="st0" points="97.5,144.51 97.5,107.21 134.8,107.21 97.5,144.51 		"/>
	</g>
	<g>
		<path class="st1" d="M44.39,342.8c-3.82-5.03-5.74-11.82-5.74-20.36v-95.18L0,265.91v121.28L44.39,342.8z"/>
		<polygon class="st1" points="279.97,107.21 221.72,165.47 221.72,107.21 		"/>
		<path class="st1" d="M387.19,0H265.91l-52.99,52.99l103.59,0c5.71,0,10.64,0.96,14.8,2.88L387.19,0z"/>
		<polygon class="st1" points="158.69,107.21 97.5,168.4 97.5,289.69 162.44,224.74 162.44,107.21 		"/>
	</g>
	<g>
		<path class="st0" d="M5.39,405.69h121.28l54.43-54.42c-4.29-1.27-7.92-3.39-10.88-6.35c-5.19-5.18-7.78-12.68-7.78-22.49l0-73.8
			L97.5,313.58l0,8.86c0,9.81-2.46,17.31-7.36,22.49c-4.91,5.18-12.26,7.78-22.07,7.78c-3.19,0-6.13-0.29-8.81-0.87L5.39,405.69z"/>
		<polygon class="st0" points="221.72,189.37 286.66,124.42 286.66,245.7 221.72,310.65 		"/>
		<path class="st0" d="M406.04,126.32V86.2c0-10.93,2.87-19.19,8.62-24.8c5.74-5.6,13.8-8.41,24.17-8.41h40.55l7.88-7.88L532.37,0
			H411.08l-44.7,44.7l-23.21,23.21c1.84,4.22,2.76,9.34,2.76,15.34v103.18l43.28-43.28L406.04,126.32z"/>
	</g>
	<g>
		<path class="st1" d="M271.85,405.69H150.57l55.39-55.37c3.21-1.28,5.94-3.08,8.19-5.4c2.14-2.2,3.83-4.82,5.06-7.86l67.45-67.47
			v52.84c0,9.81,2.59,17.31,7.78,22.49c5.18,5.18,12.4,7.78,21.65,7.78c3.58,0,6.85-0.35,9.79-1.04L271.85,405.69z"/>
		<path class="st1" d="M503.27,52.99h38.13c27,0,49.02,5.7,66.04,17.11L677.54,0H556.26L503.27,52.99z"/>
		<path class="st1" d="M565.44,112.22c-8.6-5.58-20.25-8.37-34.97-8.37H471.2v88.28h14.22L565.44,112.22z"/>
		<path class="st1" d="M344.82,332.73c0.75-3.09,1.12-6.52,1.12-10.29V210.33l60.11-60.11V271.5L344.82,332.73z"/>
	</g>
	<g>
		<path class="st0" d="M576.97,124.47c3.47,6.27,5.2,13.97,5.2,23.1c0,14.86-4.41,26-13.24,33.42
			c-8.83,7.43-21.65,11.14-38.46,11.14h-21.16l62.81-62.81L576.97,124.47z"/>
		<path class="st0" d="M682.93,139.79V18.51L620.5,80.94c16.21,16.56,24.31,38.77,24.31,66.63c0,13.13-1.76,25.01-5.29,35.64
			L682.93,139.79z"/>
		<path class="st0" d="M295.75,405.69h121.28l169.6-169.59c-13.08,4.59-28.16,6.89-45.22,6.89h-70.2v76.51
			c0,10.65-2.73,18.85-8.2,24.59c-5.47,5.74-13.66,8.62-24.59,8.62c-10.37,0-18.36-2.88-23.96-8.62
			c-5.61-5.74-8.41-13.94-8.41-24.59v-24.1L295.75,405.69z"/>
	</g>
	<g>
		<polygon class="st1" points="682.93,163.68 682.93,284.97 562.21,405.69 440.93,405.69 		"/>
	</g>
</g>
</svg>
