<?xml version="1.0" encoding="utf-8"?>
<!-- Generator: Adobe Illustrator 27.1.0, SVG Export Plug-In . SVG Version: 6.00 Build 0)  -->
<svg version="1.1" id="Laag_1" xmlns="http://www.w3.org/2000/svg" xmlns:xlink="http://www.w3.org/1999/xlink" x="0px" y="0px"
	 viewBox="0 0 789.7 552.1" style="enable-background:new 0 0 789.7 552.1;" xml:space="preserve">
<style type="text/css">
	.st0{fill:#3B44AC;stroke:#3B44AC;stroke-miterlimit:10;}
	.st1{fill:#E7B00C;}
	.st2{fill:#3B44AC;}
</style>
<symbol  id="Logo" viewBox="-129.6 -90.7 259.3 181.4">
	<path class="st0" d="M108-38.6c18.9,28.1,30.7,74.5,11,103C89.6,106.9,4.7,88.7-40.8,67.7c-31.1-14.4-93.6-53.2-88-91.8
		c7.1-48.7,121.8-88,193.4-52.3C73.9-71.8,93.2-60.5,108-38.6z"/>
	<path class="st1" d="M100.8-33.3c17.8,26.4,28.8,70,10.3,96.8C83.6,103.3,3.8,86.3-38.9,66.5c-29.2-13.5-88-50-82.7-86.2
		c6.7-45.8,114.4-82.7,181.7-49.2C68.8-64.5,87-53.9,100.8-33.3z"/>
	<g id="XMLID_1_">
		<g>
			<g>
				<polygon class="st2" points="110.1,57.4 109.3,52.2 97.7,57.3 				"/>
			</g>
			<g>
				<polygon class="st2" points="109.1,50.9 107.5,38.9 99,49.3 				"/>
			</g>
			<g>
				<polygon class="st2" points="107.2,34.1 105.4,19 92.8,25.6 				"/>
			</g>
			<g>
				<polygon class="st2" points="97,48.3 106.9,37.1 94.2,37.1 				"/>
			</g>
			<g>
				<polygon class="st2" points="106.1,51.6 94.1,50.2 97.2,55.8 				"/>
			</g>
			<g>
				<polygon class="st2" points="105.4,35.3 95.5,28.9 98.1,35.2 				"/>
			</g>
			<g>
				<polygon class="st2" points="104.9,15.4 96.1,0.2 93.5,11 				"/>
			</g>
			<g>
				<polygon class="st2" points="104.5,11.4 102.7,-3.4 95.6,-3.4 96.2,-2.5 				"/>
			</g>
			<g>
				<polygon class="st2" points="105.2,17.3 93.2,12.4 93.2,23.3 				"/>
			</g>
			<g>
				<polygon class="st2" points="102.8,-5.3 102,-10.5 90.4,-5.3 				"/>
			</g>
			<g>
				<polygon class="st2" points="101.8,-11.8 100.2,-23.8 91.7,-13.4 				"/>
			</g>
			<g>
				<polygon class="st2" points="89.7,-14.4 100.1,-26.4 86.7,-26.4 				"/>
			</g>
			<g>
				<polygon class="st2" points="98.8,-11.1 86.7,-12.5 89.9,-6.8 				"/>
			</g>
			<g>
				<polygon class="st2" points="96.2,35.4 93,27.4 92.3,28.1 84.9,35.4 				"/>
			</g>
			<g>
				<polygon class="st2" points="96,57.6 91.8,50.5 87.6,58 				"/>
			</g>
			<g>
				<polygon class="st2" points="95.3,48.8 92.3,36.3 89.7,38.7 				"/>
			</g>
			<g>
				<polygon class="st2" points="91.5,14.1 95,-1.8 81.8,9.4 82.7,9.8 				"/>
			</g>
			<g>
				<polygon class="st2" points="94.1,-3.4 80.3,-3.4 81.6,7.4 				"/>
			</g>
			<g>
				<polygon class="st2" points="93.2,49.3 88.4,40 81.4,47.7 				"/>
			</g>
			<g>
				<polygon class="st2" points="91.5,27.2 91.6,16.2 82,11.2 				"/>
			</g>
			<g>
				<polygon class="st2" points="89.8,28.3 82.5,15.1 84.7,33.3 				"/>
			</g>
			<g>
				<polygon class="st2" points="85.9,57.8 89.2,50.7 72.5,57.8 				"/>
			</g>
			<g>
				<polygon class="st2" points="79.9,46.6 88.8,36.8 84.9,36.8 74.8,36.7 				"/>
			</g>
			<g>
				<polygon class="st2" points="88.7,-5.1 84.5,-12.1 80.3,-4.7 				"/>
			</g>
			<g>
				<polygon class="st2" points="88,-13.9 85,-26.4 82.4,-24 				"/>
			</g>
			<g>
				<polygon class="st2" points="85.9,-13.4 81,-22.7 74.1,-15 				"/>
			</g>
			<g>
				<polygon class="st2" points="85.7,49.9 68.2,50.2 68.6,57.5 				"/>
			</g>
			<g>
				<polygon class="st2" points="72.6,-16 82,-26.4 67.3,-26.4 				"/>
			</g>
			<g>
				<polygon class="st2" points="78.8,-5.3 81.9,-12 65.2,-4.8 78.6,-4.9 				"/>
			</g>
			<g>
				<polygon class="st2" points="79.9,48.3 79.3,48.1 77.3,47.3 67.6,43.3 67.9,48.3 				"/>
			</g>
			<g>
				<polygon class="st2" points="78.4,-12.8 60.9,-12.5 61.2,-5.2 				"/>
			</g>
			<g>
				<polygon class="st2" points="77.8,46.1 72,36.3 68.4,38.4 65.1,40.5 				"/>
			</g>
			<g>
				<polygon class="st2" points="72.6,-14.4 60.3,-19.4 60.6,-14.4 				"/>
			</g>
			<g>
				<polygon class="st2" points="71.8,34.2 70,19.1 57.4,25.6 				"/>
			</g>
			<g>
				<polygon class="st2" points="70.5,-16.6 64.7,-26.4 57.8,-22.2 				"/>
			</g>
			<g>
				<polygon class="st2" points="70.1,35.4 60.2,29 62.8,35.3 				"/>
			</g>
			<g>
				<polygon class="st2" points="69.9,17.4 57.9,12.5 57.9,23.4 				"/>
			</g>
			<g>
				<polygon class="st2" points="69.6,15.5 60.8,0.3 58.2,11.1 				"/>
			</g>
			<g>
				<polygon class="st2" points="69.1,11.5 67.3,-3.3 65.2,-3.3 60.3,-3.3 60.8,-2.4 				"/>
			</g>
			<g>
				<polygon class="st2" points="67.6,37.1 49.8,37.1 51,46.6 				"/>
			</g>
			<g>
				<polygon class="st2" points="66.8,58 66.1,42.5 54.8,57.8 				"/>
			</g>
			<g>
				<polygon class="st2" points="64.5,-28.5 62.7,-43.6 50.1,-37 				"/>
			</g>
			<g>
				<polygon class="st2" points="52.3,57.9 63.8,41.8 51.1,48.9 				"/>
			</g>
			<g>
				<polygon class="st2" points="62.7,-27.3 52.8,-33.7 55.4,-27.3 				"/>
			</g>
			<g>
				<polygon class="st2" points="62.5,-45.3 50.5,-50.2 50.5,-39.3 				"/>
			</g>
			<g>
				<polygon class="st2" points="62.2,-47.1 53.4,-62.4 50.8,-51.6 				"/>
			</g>
			<g>
				<polygon class="st2" points="61.8,-51.2 60,-66 52.9,-66 				"/>
			</g>
			<g>
				<polygon class="st2" points="60.9,35.5 57.7,27.5 57,28.2 49.6,35.5 49.8,35.5 				"/>
			</g>
			<g>
				<polygon class="st2" points="60.3,-25.6 42.5,-25.6 43.7,-16 				"/>
			</g>
			<g>
				<polygon class="st2" points="56.1,14.2 59.6,-1.7 46.4,9.5 47.3,9.9 				"/>
			</g>
			<g>
				<polygon class="st2" points="59.5,-4.7 58.7,-20.2 47.5,-4.8 				"/>
			</g>
			<g>
				<polygon class="st2" points="58.7,-3.3 44.9,-3.3 46.2,7.5 				"/>
			</g>
			<g>
				<polygon class="st2" points="45,-4.8 56.5,-20.8 43.8,-13.8 				"/>
			</g>
			<g>
				<polygon class="st2" points="56.1,27.3 56.3,16.3 46.7,11.3 				"/>
			</g>
			<g>
				<polygon class="st2" points="54.5,28.4 47.2,15.2 49.3,33.4 				"/>
			</g>
			<g>
				<polygon class="st2" points="53.5,-27.2 50.3,-35.2 42.2,-27.2 				"/>
			</g>
			<g>
				<polygon class="st2" points="48.8,-48.5 52.3,-64.4 39.1,-53.2 				"/>
			</g>
			<g>
				<polygon class="st2" points="51.4,-66 37.6,-66 38.9,-55.2 				"/>
			</g>
			<g>
				<polygon class="st2" points="48.8,-35.4 48.9,-46.4 39.3,-51.4 				"/>
			</g>
			<g>
				<polygon class="st2" points="47.1,-34.3 39.8,-47.5 42,-29.3 				"/>
			</g>
			<g>
				<polygon class="st2" points="40.1,57.4 39.2,49.4 31.2,57.4 				"/>
			</g>
			<g>
				<polygon class="st2" points="39,47.8 37.7,37.3 28.1,45.4 				"/>
			</g>
			<g>
				<polygon class="st2" points="37.5,35 25.5,30.9 29.4,42.2 				"/>
			</g>
			<g>
				<polygon class="st2" points="36.9,33.6 28,18.4 25.5,29.1 				"/>
			</g>
			<g>
				<polygon class="st2" points="32,54.1 36.5,49.1 30,47.5 				"/>
			</g>
			<g>
				<polygon class="st2" points="36.4,29.5 34.6,14.7 27.6,14.7 				"/>
			</g>
			<g>
				<polygon class="st2" points="34.5,11.9 32.7,-3.2 20.1,3.4 				"/>
			</g>
			<g>
				<polygon class="st2" points="32.7,13.1 22.8,6.7 25.4,13.1 				"/>
			</g>
			<g>
				<polygon class="st2" points="32.5,-4.9 20.5,-9.8 20.5,1.1 				"/>
			</g>
			<g>
				<polygon class="st2" points="32.2,-6.7 23.4,-22 20.8,-11.2 				"/>
			</g>
			<g>
				<polygon class="st2" points="31.8,-10.8 30,-25.6 22.9,-25.6 				"/>
			</g>
			<g>
				<polygon class="st2" points="30.2,55.2 27.8,46.7 25.1,49.9 				"/>
			</g>
			<g>
				<polygon class="st2" points="29.7,-28.5 27.9,-43.6 15.3,-37 				"/>
			</g>
			<g>
				<polygon class="st2" points="29.1,57.4 23.6,50.7 25.1,57.4 				"/>
			</g>
			<g>
				<polygon class="st2" points="27.9,42.9 25.1,34.2 17.3,35.4 				"/>
			</g>
			<g>
				<polygon class="st2" points="27.9,-27.3 18,-33.7 20.6,-27.3 				"/>
			</g>
			<g>
				<polygon class="st2" points="27.7,-45.3 15.7,-50.2 15.7,-39.3 				"/>
			</g>
			<g>
				<polygon class="st2" points="27.4,-47.1 18.6,-62.4 16,-51.6 				"/>
			</g>
			<g>
				<polygon class="st2" points="27,-51.2 25.2,-66 18.1,-66 				"/>
			</g>
			<g>
				<polygon class="st2" points="23.4,32.2 26.9,16.4 13.7,27.6 				"/>
			</g>
			<g>
				<polygon class="st2" points="23,49.7 26.5,44.4 18.7,38.5 				"/>
			</g>
			<g>
				<polygon class="st2" points="26,14.7 12.2,14.7 13.5,25.5 				"/>
			</g>
			<g>
				<polygon class="st2" points="23.5,13.2 20.3,5.2 12.2,13.2 				"/>
			</g>
			<g>
				<polygon class="st2" points="23.1,57 19.2,44.5 16.6,47.6 				"/>
			</g>
			<g>
				<polygon class="st2" points="22.7,33.1 14.8,29.4 15.4,33.6 				"/>
			</g>
			<g>
				<polygon class="st2" points="18.8,-8.1 22.3,-24 9.1,-12.8 				"/>
			</g>
			<g>
				<polygon class="st2" points="21.4,-25.6 7.6,-25.6 8.9,-14.8 				"/>
			</g>
			<g>
				<polygon class="st2" points="20.9,57 16.2,50.2 12.7,57 				"/>
			</g>
			<g>
				<polygon class="st2" points="18.8,5 18.9,-6 9.3,-11 				"/>
			</g>
			<g>
				<polygon class="st2" points="18.7,-27.2 15.5,-35.2 7.4,-27.2 				"/>
			</g>
			<g>
				<polygon class="st2" points="18.2,42.6 14.9,35 5.5,35 				"/>
			</g>
			<g>
				<polygon class="st2" points="13.9,-48.5 17.4,-64.3 4.3,-53.2 				"/>
			</g>
			<g>
				<polygon class="st2" points="17.1,6.1 9.8,-7.1 12,11.1 				"/>
			</g>
			<g>
				<polygon class="st2" points="12.7,50.6 17.1,43.9 13.5,42 				"/>
			</g>
			<g>
				<polygon class="st2" points="16.6,-66 2.8,-66 4.1,-55.2 				"/>
			</g>
			<g>
				<polygon class="st2" points="13.9,-35.4 14.1,-46.4 4.5,-51.4 				"/>
			</g>
			<g>
				<polygon class="st2" points="10.9,57.4 12.7,52.3 1.1,57.4 				"/>
			</g>
			<g>
				<polygon class="st2" points="12.3,-34.3 5,-47.5 7.2,-29.3 				"/>
			</g>
			<g>
				<polygon class="st2" points="10.9,51 10.9,45.4 5,53.4 				"/>
			</g>
			<g>
				<polygon class="st2" points="1.1,55.7 10.9,42.9 -2.1,44.9 				"/>
			</g>
			<g>
				<polygon class="st2" points="11.9,41.4 3.5,35.8 -4,43.3 				"/>
			</g>
			<g>
				<polygon class="st2" points="2,35.4 -10,31.3 -6.1,42.7 				"/>
			</g>
			<g>
				<polygon class="st2" points="1.7,33.6 -7.1,18.4 -9.7,29.1 				"/>
			</g>
			<g>
				<polygon class="st2" points="1.2,29.5 -0.6,14.7 -7.6,14.7 				"/>
			</g>
			<g>
				<polygon class="st2" points="-0.2,57.4 -4,45.4 -9,57.4 				"/>
			</g>
			<g>
				<polygon class="st2" points="-0.7,11.9 -2.5,-3.2 -15.1,3.3 				"/>
			</g>
			<g>
				<polygon class="st2" points="-2.4,13.1 -12.4,6.7 -9.7,13 				"/>
			</g>
			<g>
				<polygon class="st2" points="-2.6,-4.9 -14.6,-9.8 -14.6,1.1 				"/>
			</g>
			<g>
				<polygon class="st2" points="-2.9,-6.8 -11.8,-22 -14.3,-11.2 				"/>
			</g>
			<g>
				<polygon class="st2" points="-3.4,-10.8 -5.2,-25.6 -12.2,-25.6 				"/>
			</g>
			<g>
				<polygon class="st2" points="-5.5,-28.5 -7.3,-43.6 -19.9,-37.1 				"/>
			</g>
			<g>
				<polygon class="st2" points="-10.7,57.4 -6.1,44.6 -12.1,52.3 				"/>
			</g>
			<g>
				<polygon class="st2" points="-7.2,-27.3 -17.2,-33.7 -14.6,-27.4 				"/>
			</g>
			<g>
				<polygon class="st2" points="-7.5,-45.3 -19.5,-50.2 -19.5,-39.3 				"/>
			</g>
			<g>
				<polygon class="st2" points="-7.6,43.3 -10.4,34.6 -18.2,35.8 				"/>
			</g>
			<g>
				<polygon class="st2" points="-7.7,-47.2 -16.6,-62.4 -19.1,-51.6 				"/>
			</g>
			<g>
				<polygon class="st2" points="-8.2,-51.2 -10,-66 -17,-66 				"/>
			</g>
			<g>
				<polygon class="st2" points="-12.5,50.2 -9,44.8 -16.8,39 				"/>
			</g>
			<g>
				<polygon class="st2" points="-9.2,14.7 -23,14.7 -21.7,25.5 				"/>
			</g>
			<g>
				<polygon class="st2" points="-11.8,32.2 -8.3,16.4 -21.4,27.5 				"/>
			</g>
			<g>
				<polygon class="st2" points="-11.7,13.2 -14.8,5.2 -22.9,13.2 				"/>
			</g>
			<g>
				<polygon class="st2" points="-12.4,57.4 -16.3,44.9 -19,48.1 				"/>
			</g>
			<g>
				<polygon class="st2" points="-12.8,33.6 -20.7,29.9 -20.1,34 				"/>
			</g>
			<g>
				<polygon class="st2" points="-16.4,-8.1 -12.9,-24 -26.1,-12.8 				"/>
			</g>
			<g>
				<polygon class="st2" points="-13.8,-25.6 -27.6,-25.6 -26.3,-14.8 				"/>
			</g>
			<g>
				<polygon class="st2" points="-14.6,57.4 -19.3,50.6 -22.9,57.4 				"/>
			</g>
			<g>
				<polygon class="st2" points="-16.4,5 -16.2,-6 -25.8,-11 				"/>
			</g>
			<g>
				<polygon class="st2" points="-16.5,-27.2 -19.6,-35.2 -27.8,-27.2 				"/>
			</g>
			<g>
				<polygon class="st2" points="-17.3,43.1 -20.6,35.4 -30,35.4 				"/>
			</g>
			<g>
				<polygon class="st2" points="-21.2,-48.5 -17.7,-64.4 -30.9,-53.2 				"/>
			</g>
			<g>
				<polygon class="st2" points="-18,6.1 -25.4,-7.1 -23.2,11.1 				"/>
			</g>
			<g>
				<polygon class="st2" points="-18.6,-66 -32.4,-66 -31.1,-55.2 				"/>
			</g>
			<g>
				<polygon class="st2" points="-18.9,44.7 -26.7,39.3 -33.6,43 				"/>
			</g>
			<g>
				<polygon class="st2" points="-25.3,57.4 -20.4,49 -28.9,50.2 				"/>
			</g>
			<g>
				<polygon class="st2" points="-20.6,46.7 -35.9,44.1 -32.8,49.4 				"/>
			</g>
			<g>
				<polygon class="st2" points="-21.2,-35.4 -21,-46.4 -30.6,-51.4 				"/>
			</g>
			<g>
				<polygon class="st2" points="-22.8,-34.3 -30.2,-47.5 -28,-29.3 				"/>
			</g>
			<g>
				<polygon class="st2" points="-27.5,57.4 -31,50.2 -48.6,57.5 				"/>
			</g>
			<g>
				<polygon class="st2" points="-28.3,38.1 -45.4,31.3 -37.4,43.3 				"/>
			</g>
			<g>
				<polygon class="st2" points="-33.7,33.9 -42.5,18.7 -45.1,29.4 				"/>
			</g>
			<g>
				<polygon class="st2" points="-34.1,29.8 -35.9,15 -43,15 				"/>
			</g>
			<g>
				<polygon class="st2" points="-35.9,48.6 -45,34.7 -50.8,44.7 				"/>
			</g>
			<g>
				<polygon class="st2" points="-35.9,50.2 -53.6,51 -52.7,57.5 				"/>
			</g>
			<g>
				<polygon class="st2" points="-36,12.2 -37.9,-2.9 -50.4,3.7 				"/>
			</g>
			<g>
				<polygon class="st2" points="-37.8,13.4 -47.7,7 -45.1,13.4 				"/>
			</g>
			<g>
				<polygon class="st2" points="-38,-4.6 -50,-9.5 -50,1.4 				"/>
			</g>
			<g>
				<polygon class="st2" points="-38.3,-6.4 -47.1,-21.7 -49.7,-10.9 				"/>
			</g>
			<g>
				<polygon class="st2" points="-38.8,-10.5 -40.6,-25.3 -47.6,-25.3 				"/>
			</g>
			<g>
				<polygon class="st2" points="-40.9,-28.2 -42.7,-43.3 -55.3,-36.7 				"/>
			</g>
			<g>
				<polygon class="st2" points="-40.9,49.2 -51.4,46.3 -53.7,49.6 				"/>
			</g>
			<g>
				<polygon class="st2" points="-42.6,-27 -52.6,-33.4 -49.9,-27 				"/>
			</g>
			<g>
				<polygon class="st2" points="-42.8,-45 -54.8,-49.9 -54.8,-39 				"/>
			</g>
			<g>
				<polygon class="st2" points="-43.1,-46.8 -51.9,-62.1 -54.5,-51.3 				"/>
			</g>
			<g>
				<polygon class="st2" points="-43.6,-50.9 -45.4,-65.7 -52.4,-65.7 				"/>
			</g>
			<g>
				<polygon class="st2" points="-47.2,32.5 -43.6,16.7 -56.8,27.9 				"/>
			</g>
			<g>
				<polygon class="st2" points="-44.5,15 -58.3,15 -57,25.8 				"/>
			</g>
			<g>
				<polygon class="st2" points="-54,47.4 -47,34.1 -56.1,30.2 				"/>
			</g>
			<g>
				<polygon class="st2" points="-47,13.5 -50.2,5.5 -58.3,13.5 				"/>
			</g>
			<g>
				<polygon class="st2" points="-51.8,-7.8 -48.3,-23.7 -61.4,-12.5 				"/>
			</g>
			<g>
				<polygon class="st2" points="-49.2,-25.3 -63,-25.3 -61.7,-14.5 				"/>
			</g>
			<g>
				<polygon class="st2" points="-51.8,5.3 -51.6,-5.7 -61.2,-10.7 				"/>
			</g>
			<g>
				<polygon class="st2" points="-51.8,-26.9 -55,-34.9 -63.1,-26.9 				"/>
			</g>
			<g>
				<polygon class="st2" points="-56.6,-48.2 -53.1,-64 -66.3,-52.9 				"/>
			</g>
			<g>
				<polygon class="st2" points="-53.4,6.4 -60.7,-6.8 -58.6,11.4 				"/>
			</g>
			<g>
				<polygon class="st2" points="-54,-65.7 -67.8,-65.7 -66.5,-54.9 				"/>
			</g>
			<g>
				<polygon class="st2" points="-56.6,-35.1 -56.4,-46.1 -66,-51.1 				"/>
			</g>
			<g>
				<polygon class="st2" points="-58.2,-34 -65.6,-47.2 -63.4,-29 				"/>
			</g>
		</g>
		<g>
			<line class="st2" x1="-32.4" y1="-66" x2="-18.6" y2="-66"/>
			<line class="st2" x1="-31.1" y1="-55.2" x2="-32.4" y2="-66"/>
			<line class="st2" x1="-18.6" y1="-66" x2="-31.1" y2="-55.2"/>
			<line class="st2" x1="-10" y1="-66" x2="-17" y2="-66"/>
			<line class="st2" x1="-8.2" y1="-51.2" x2="-10" y2="-66"/>
			<line class="st2" x1="-17" y1="-66" x2="-8.2" y2="-51.2"/>
			<line class="st2" x1="-30.9" y1="-53.2" x2="-17.7" y2="-64.4"/>
			<line class="st2" x1="-21.2" y1="-48.5" x2="-30.9" y2="-53.2"/>
			<line class="st2" x1="-17.7" y1="-64.4" x2="-21.2" y2="-48.5"/>
			<line class="st2" x1="-16.6" y1="-62.4" x2="-7.7" y2="-47.2"/>
			<line class="st2" x1="-19.1" y1="-51.6" x2="-7.7" y2="-47.2"/>
			<line class="st2" x1="-16.6" y1="-62.4" x2="-19.1" y2="-51.6"/>
			<line class="st2" x1="-19.5" y1="-50.2" x2="-7.5" y2="-45.3"/>
			<line class="st2" x1="-19.5" y1="-39.3" x2="-7.5" y2="-45.3"/>
			<line class="st2" x1="-19.5" y1="-50.2" x2="-19.5" y2="-39.3"/>
			<line class="st2" x1="-30.6" y1="-51.4" x2="-21" y2="-46.4"/>
			<line class="st2" x1="-21.2" y1="-35.4" x2="-21" y2="-46.4"/>
			<line class="st2" x1="-30.6" y1="-51.4" x2="-21.2" y2="-35.4"/>
			<line class="st2" x1="-7.3" y1="-43.6" x2="-19.9" y2="-37.1"/>
			<line class="st2" x1="-5.5" y1="-28.5" x2="-19.9" y2="-37.1"/>
			<line class="st2" x1="-7.3" y1="-43.6" x2="-5.5" y2="-28.5"/>
			<line class="st2" x1="-16.5" y1="-27.2" x2="-19.6" y2="-35.2"/>
			<line class="st2" x1="-27.8" y1="-27.2" x2="-19.6" y2="-35.2"/>
			<line class="st2" x1="-16.5" y1="-27.2" x2="-27.8" y2="-27.2"/>
			<line class="st2" x1="-30.2" y1="-47.5" x2="-22.8" y2="-34.3"/>
			<line class="st2" x1="-28" y1="-29.3" x2="-22.8" y2="-34.3"/>
			<line class="st2" x1="-30.2" y1="-47.5" x2="-28" y2="-29.3"/>
			<line class="st2" x1="-14.6" y1="-27.4" x2="-17.2" y2="-33.7"/>
			<line class="st2" x1="-7.2" y1="-27.3" x2="-14.6" y2="-27.4"/>
			<line class="st2" x1="-17.2" y1="-33.7" x2="-7.2" y2="-27.3"/>
			<line class="st2" x1="-27.6" y1="-25.6" x2="-13.8" y2="-25.6"/>
			<line class="st2" x1="-26.3" y1="-14.8" x2="-27.6" y2="-25.6"/>
			<line class="st2" x1="-13.8" y1="-25.6" x2="-26.3" y2="-14.8"/>
			<line class="st2" x1="-5.2" y1="-25.6" x2="-12.2" y2="-25.6"/>
			<line class="st2" x1="-3.4" y1="-10.8" x2="-5.2" y2="-25.6"/>
			<line class="st2" x1="-12.2" y1="-25.6" x2="-3.4" y2="-10.8"/>
			<line class="st2" x1="-26.1" y1="-12.8" x2="-12.9" y2="-24"/>
			<line class="st2" x1="-16.4" y1="-8.1" x2="-26.1" y2="-12.8"/>
			<line class="st2" x1="-12.9" y1="-24" x2="-16.4" y2="-8.1"/>
			<line class="st2" x1="-11.8" y1="-22" x2="-2.9" y2="-6.8"/>
			<line class="st2" x1="-14.3" y1="-11.2" x2="-2.9" y2="-6.8"/>
			<line class="st2" x1="-11.8" y1="-22" x2="-14.3" y2="-11.2"/>
			<line class="st2" x1="-14.6" y1="-9.8" x2="-2.6" y2="-4.9"/>
			<line class="st2" x1="-14.6" y1="1.1" x2="-2.6" y2="-4.9"/>
			<line class="st2" x1="-14.6" y1="-9.8" x2="-14.6" y2="1.1"/>
			<line class="st2" x1="-25.8" y1="-11" x2="-16.2" y2="-6"/>
			<line class="st2" x1="-16.4" y1="5" x2="-16.2" y2="-6"/>
			<line class="st2" x1="-25.8" y1="-11" x2="-16.4" y2="5"/>
			<line class="st2" x1="-2.5" y1="-3.2" x2="-15.1" y2="3.3"/>
			<line class="st2" x1="-0.7" y1="11.9" x2="-15.1" y2="3.3"/>
			<line class="st2" x1="-2.5" y1="-3.2" x2="-0.7" y2="11.9"/>
			<line class="st2" x1="-11.7" y1="13.2" x2="-14.8" y2="5.2"/>
			<line class="st2" x1="-22.9" y1="13.2" x2="-14.8" y2="5.2"/>
			<line class="st2" x1="-11.7" y1="13.2" x2="-22.9" y2="13.2"/>
			<line class="st2" x1="-25.4" y1="-7.1" x2="-18" y2="6.1"/>
			<line class="st2" x1="-23.2" y1="11.1" x2="-18" y2="6.1"/>
			<line class="st2" x1="-25.4" y1="-7.1" x2="-23.2" y2="11.1"/>
			<line class="st2" x1="-9.7" y1="13" x2="-12.4" y2="6.7"/>
			<line class="st2" x1="-2.4" y1="13.1" x2="-9.7" y2="13"/>
			<line class="st2" x1="-12.4" y1="6.7" x2="-2.4" y2="13.1"/>
			<line class="st2" x1="-23" y1="14.7" x2="-9.2" y2="14.7"/>
			<line class="st2" x1="-21.7" y1="25.5" x2="-23" y2="14.7"/>
			<line class="st2" x1="-9.2" y1="14.7" x2="-21.7" y2="25.5"/>
			<line class="st2" x1="-0.6" y1="14.7" x2="-7.6" y2="14.7"/>
			<line class="st2" x1="1.2" y1="29.5" x2="-0.6" y2="14.7"/>
			<line class="st2" x1="-7.6" y1="14.7" x2="1.2" y2="29.5"/>
			<line class="st2" x1="-21.4" y1="27.5" x2="-8.3" y2="16.4"/>
			<line class="st2" x1="-11.8" y1="32.2" x2="-21.4" y2="27.5"/>
			<line class="st2" x1="-8.3" y1="16.4" x2="-11.8" y2="32.2"/>
			<line class="st2" x1="-7.1" y1="18.4" x2="1.7" y2="33.6"/>
			<line class="st2" x1="-9.7" y1="29.1" x2="1.7" y2="33.6"/>
			<line class="st2" x1="-7.1" y1="18.4" x2="-9.7" y2="29.1"/>
			<line class="st2" x1="2.8" y1="-66" x2="16.6" y2="-66"/>
			<line class="st2" x1="4.1" y1="-55.2" x2="2.8" y2="-66"/>
			<line class="st2" x1="16.6" y1="-66" x2="4.1" y2="-55.2"/>
			<line class="st2" x1="25.2" y1="-66" x2="18.1" y2="-66"/>
			<line class="st2" x1="27" y1="-51.2" x2="25.2" y2="-66"/>
			<line class="st2" x1="18.1" y1="-66" x2="27" y2="-51.2"/>
			<line class="st2" x1="4.3" y1="-53.2" x2="17.4" y2="-64.3"/>
			<line class="st2" x1="13.9" y1="-48.5" x2="4.3" y2="-53.2"/>
			<line class="st2" x1="17.4" y1="-64.3" x2="13.9" y2="-48.5"/>
			<line class="st2" x1="18.6" y1="-62.4" x2="27.4" y2="-47.1"/>
			<line class="st2" x1="16" y1="-51.6" x2="27.4" y2="-47.1"/>
			<line class="st2" x1="18.6" y1="-62.4" x2="16" y2="-51.6"/>
			<line class="st2" x1="15.7" y1="-50.2" x2="27.7" y2="-45.3"/>
			<line class="st2" x1="15.7" y1="-39.3" x2="27.7" y2="-45.3"/>
			<line class="st2" x1="15.7" y1="-50.2" x2="15.7" y2="-39.3"/>
			<line class="st2" x1="4.5" y1="-51.4" x2="14.1" y2="-46.4"/>
			<line class="st2" x1="13.9" y1="-35.4" x2="14.1" y2="-46.4"/>
			<line class="st2" x1="4.5" y1="-51.4" x2="13.9" y2="-35.4"/>
			<line class="st2" x1="27.9" y1="-43.6" x2="15.3" y2="-37"/>
			<line class="st2" x1="29.7" y1="-28.5" x2="15.3" y2="-37"/>
			<line class="st2" x1="27.9" y1="-43.6" x2="29.7" y2="-28.5"/>
			<line class="st2" x1="18.7" y1="-27.2" x2="15.5" y2="-35.2"/>
			<line class="st2" x1="7.4" y1="-27.2" x2="15.5" y2="-35.2"/>
			<line class="st2" x1="18.7" y1="-27.2" x2="7.4" y2="-27.2"/>
			<line class="st2" x1="5" y1="-47.5" x2="12.3" y2="-34.3"/>
			<line class="st2" x1="7.2" y1="-29.3" x2="12.3" y2="-34.3"/>
			<line class="st2" x1="5" y1="-47.5" x2="7.2" y2="-29.3"/>
			<line class="st2" x1="20.6" y1="-27.3" x2="18" y2="-33.7"/>
			<line class="st2" x1="27.9" y1="-27.3" x2="20.6" y2="-27.3"/>
			<line class="st2" x1="18" y1="-33.7" x2="27.9" y2="-27.3"/>
			<line class="st2" x1="7.6" y1="-25.6" x2="21.4" y2="-25.6"/>
			<line class="st2" x1="8.9" y1="-14.8" x2="7.6" y2="-25.6"/>
			<line class="st2" x1="21.4" y1="-25.6" x2="8.9" y2="-14.8"/>
			<line class="st2" x1="30" y1="-25.6" x2="22.9" y2="-25.6"/>
			<line class="st2" x1="31.8" y1="-10.8" x2="30" y2="-25.6"/>
			<line class="st2" x1="22.9" y1="-25.6" x2="31.8" y2="-10.8"/>
			<line class="st2" x1="9.1" y1="-12.8" x2="22.3" y2="-24"/>
			<line class="st2" x1="18.8" y1="-8.1" x2="9.1" y2="-12.8"/>
			<line class="st2" x1="22.3" y1="-24" x2="18.8" y2="-8.1"/>
			<line class="st2" x1="23.4" y1="-22" x2="32.2" y2="-6.7"/>
			<line class="st2" x1="20.8" y1="-11.2" x2="32.2" y2="-6.7"/>
			<line class="st2" x1="23.4" y1="-22" x2="20.8" y2="-11.2"/>
			<line class="st2" x1="20.5" y1="-9.8" x2="32.5" y2="-4.9"/>
			<line class="st2" x1="20.5" y1="1.1" x2="32.5" y2="-4.9"/>
			<line class="st2" x1="20.5" y1="-9.8" x2="20.5" y2="1.1"/>
			<line class="st2" x1="9.3" y1="-11" x2="18.9" y2="-6"/>
			<line class="st2" x1="18.8" y1="5" x2="18.9" y2="-6"/>
			<line class="st2" x1="9.3" y1="-11" x2="18.8" y2="5"/>
			<line class="st2" x1="32.7" y1="-3.2" x2="20.1" y2="3.4"/>
			<line class="st2" x1="34.5" y1="11.9" x2="20.1" y2="3.4"/>
			<line class="st2" x1="32.7" y1="-3.2" x2="34.5" y2="11.9"/>
			<line class="st2" x1="23.5" y1="13.2" x2="20.3" y2="5.2"/>
			<line class="st2" x1="12.2" y1="13.2" x2="20.3" y2="5.2"/>
			<line class="st2" x1="23.5" y1="13.2" x2="12.2" y2="13.2"/>
			<line class="st2" x1="9.8" y1="-7.1" x2="17.1" y2="6.1"/>
			<line class="st2" x1="12" y1="11.1" x2="17.1" y2="6.1"/>
			<line class="st2" x1="9.8" y1="-7.1" x2="12" y2="11.1"/>
			<line class="st2" x1="25.4" y1="13.1" x2="22.8" y2="6.7"/>
			<line class="st2" x1="32.7" y1="13.1" x2="25.4" y2="13.1"/>
			<line class="st2" x1="22.8" y1="6.7" x2="32.7" y2="13.1"/>
			<line class="st2" x1="12.2" y1="14.7" x2="26" y2="14.7"/>
			<line class="st2" x1="13.5" y1="25.5" x2="12.2" y2="14.7"/>
			<line class="st2" x1="26" y1="14.7" x2="13.5" y2="25.5"/>
			<line class="st2" x1="34.6" y1="14.7" x2="27.6" y2="14.7"/>
			<line class="st2" x1="36.4" y1="29.5" x2="34.6" y2="14.7"/>
			<line class="st2" x1="27.6" y1="14.7" x2="36.4" y2="29.5"/>
			<line class="st2" x1="13.7" y1="27.6" x2="26.9" y2="16.4"/>
			<line class="st2" x1="23.4" y1="32.2" x2="13.7" y2="27.6"/>
			<line class="st2" x1="26.9" y1="16.4" x2="23.4" y2="32.2"/>
			<line class="st2" x1="28" y1="18.4" x2="36.9" y2="33.6"/>
			<line class="st2" x1="25.5" y1="29.1" x2="36.9" y2="33.6"/>
			<line class="st2" x1="28" y1="18.4" x2="25.5" y2="29.1"/>
			<line class="st2" x1="-67.8" y1="-65.7" x2="-54" y2="-65.7"/>
			<line class="st2" x1="-66.5" y1="-54.9" x2="-67.8" y2="-65.7"/>
			<line class="st2" x1="-54" y1="-65.7" x2="-66.5" y2="-54.9"/>
			<line class="st2" x1="-45.4" y1="-65.7" x2="-52.4" y2="-65.7"/>
			<line class="st2" x1="-43.6" y1="-50.9" x2="-45.4" y2="-65.7"/>
			<line class="st2" x1="-52.4" y1="-65.7" x2="-43.6" y2="-50.9"/>
			<line class="st2" x1="-66.3" y1="-52.9" x2="-53.1" y2="-64"/>
			<line class="st2" x1="-56.6" y1="-48.2" x2="-66.3" y2="-52.9"/>
			<line class="st2" x1="-53.1" y1="-64" x2="-56.6" y2="-48.2"/>
			<line class="st2" x1="-51.9" y1="-62.1" x2="-43.1" y2="-46.8"/>
			<line class="st2" x1="-54.5" y1="-51.3" x2="-43.1" y2="-46.8"/>
			<line class="st2" x1="-51.9" y1="-62.1" x2="-54.5" y2="-51.3"/>
			<line class="st2" x1="-54.8" y1="-49.9" x2="-42.8" y2="-45"/>
			<line class="st2" x1="-54.8" y1="-39" x2="-42.8" y2="-45"/>
			<line class="st2" x1="-54.8" y1="-49.9" x2="-54.8" y2="-39"/>
			<line class="st2" x1="-66" y1="-51.1" x2="-56.4" y2="-46.1"/>
			<line class="st2" x1="-56.6" y1="-35.1" x2="-56.4" y2="-46.1"/>
			<line class="st2" x1="-66" y1="-51.1" x2="-56.6" y2="-35.1"/>
			<line class="st2" x1="-42.7" y1="-43.3" x2="-55.3" y2="-36.7"/>
			<line class="st2" x1="-40.9" y1="-28.2" x2="-55.3" y2="-36.7"/>
			<line class="st2" x1="-42.7" y1="-43.3" x2="-40.9" y2="-28.2"/>
			<line class="st2" x1="-51.8" y1="-26.9" x2="-55" y2="-34.9"/>
			<line class="st2" x1="-63.1" y1="-26.9" x2="-55" y2="-34.9"/>
			<line class="st2" x1="-51.8" y1="-26.9" x2="-63.1" y2="-26.9"/>
			<line class="st2" x1="-65.6" y1="-47.2" x2="-58.2" y2="-34"/>
			<line class="st2" x1="-63.4" y1="-29" x2="-58.2" y2="-34"/>
			<line class="st2" x1="-65.6" y1="-47.2" x2="-63.4" y2="-29"/>
			<line class="st2" x1="-49.9" y1="-27" x2="-52.6" y2="-33.4"/>
			<line class="st2" x1="-42.6" y1="-27" x2="-49.9" y2="-27"/>
			<line class="st2" x1="-52.6" y1="-33.4" x2="-42.6" y2="-27"/>
			<line class="st2" x1="-63" y1="-25.3" x2="-49.2" y2="-25.3"/>
			<line class="st2" x1="-61.7" y1="-14.5" x2="-63" y2="-25.3"/>
			<line class="st2" x1="-49.2" y1="-25.3" x2="-61.7" y2="-14.5"/>
			<line class="st2" x1="-40.6" y1="-25.3" x2="-47.6" y2="-25.3"/>
			<line class="st2" x1="-38.8" y1="-10.5" x2="-40.6" y2="-25.3"/>
			<line class="st2" x1="-47.6" y1="-25.3" x2="-38.8" y2="-10.5"/>
			<line class="st2" x1="-61.4" y1="-12.5" x2="-48.3" y2="-23.7"/>
			<line class="st2" x1="-51.8" y1="-7.8" x2="-61.4" y2="-12.5"/>
			<line class="st2" x1="-48.3" y1="-23.7" x2="-51.8" y2="-7.8"/>
			<line class="st2" x1="-47.1" y1="-21.7" x2="-38.3" y2="-6.4"/>
			<line class="st2" x1="-49.7" y1="-10.9" x2="-38.3" y2="-6.4"/>
			<line class="st2" x1="-47.1" y1="-21.7" x2="-49.7" y2="-10.9"/>
			<line class="st2" x1="-50" y1="-9.5" x2="-38" y2="-4.6"/>
			<line class="st2" x1="-50" y1="1.4" x2="-38" y2="-4.6"/>
			<line class="st2" x1="-50" y1="-9.5" x2="-50" y2="1.4"/>
			<line class="st2" x1="-61.2" y1="-10.7" x2="-51.6" y2="-5.7"/>
			<line class="st2" x1="-51.8" y1="5.3" x2="-51.6" y2="-5.7"/>
			<line class="st2" x1="-61.2" y1="-10.7" x2="-51.8" y2="5.3"/>
			<line class="st2" x1="-37.9" y1="-2.9" x2="-50.4" y2="3.7"/>
			<line class="st2" x1="-36" y1="12.2" x2="-50.4" y2="3.7"/>
			<line class="st2" x1="-37.9" y1="-2.9" x2="-36" y2="12.2"/>
			<line class="st2" x1="-47" y1="13.5" x2="-50.2" y2="5.5"/>
			<line class="st2" x1="-58.3" y1="13.5" x2="-50.2" y2="5.5"/>
			<line class="st2" x1="-47" y1="13.5" x2="-58.3" y2="13.5"/>
			<line class="st2" x1="-60.7" y1="-6.8" x2="-53.4" y2="6.4"/>
			<line class="st2" x1="-58.6" y1="11.4" x2="-53.4" y2="6.4"/>
			<line class="st2" x1="-60.7" y1="-6.8" x2="-58.6" y2="11.4"/>
			<line class="st2" x1="-45.1" y1="13.4" x2="-47.7" y2="7"/>
			<line class="st2" x1="-37.8" y1="13.4" x2="-45.1" y2="13.4"/>
			<line class="st2" x1="-47.7" y1="7" x2="-37.8" y2="13.4"/>
			<line class="st2" x1="-58.3" y1="15" x2="-44.5" y2="15"/>
			<line class="st2" x1="-57" y1="25.8" x2="-58.3" y2="15"/>
			<line class="st2" x1="-44.5" y1="15" x2="-57" y2="25.8"/>
			<line class="st2" x1="-35.9" y1="15" x2="-43" y2="15"/>
			<line class="st2" x1="-34.1" y1="29.8" x2="-35.9" y2="15"/>
			<line class="st2" x1="-43" y1="15" x2="-34.1" y2="29.8"/>
			<line class="st2" x1="-56.8" y1="27.9" x2="-43.6" y2="16.7"/>
			<line class="st2" x1="-47.2" y1="32.5" x2="-56.8" y2="27.9"/>
			<line class="st2" x1="-43.6" y1="16.7" x2="-47.2" y2="32.5"/>
			<line class="st2" x1="-42.5" y1="18.7" x2="-33.7" y2="33.9"/>
			<line class="st2" x1="-45.1" y1="29.4" x2="-33.7" y2="33.9"/>
			<line class="st2" x1="-42.5" y1="18.7" x2="-45.1" y2="29.4"/>
			<line class="st2" x1="37.6" y1="-66" x2="51.4" y2="-66"/>
			<line class="st2" x1="38.9" y1="-55.2" x2="37.6" y2="-66"/>
			<line class="st2" x1="51.4" y1="-66" x2="38.9" y2="-55.2"/>
			<line class="st2" x1="60" y1="-66" x2="52.9" y2="-66"/>
			<line class="st2" x1="61.8" y1="-51.2" x2="60" y2="-66"/>
			<line class="st2" x1="52.9" y1="-66" x2="61.8" y2="-51.2"/>
			<line class="st2" x1="39.1" y1="-53.2" x2="52.3" y2="-64.4"/>
			<line class="st2" x1="48.8" y1="-48.5" x2="39.1" y2="-53.2"/>
			<line class="st2" x1="52.3" y1="-64.4" x2="48.8" y2="-48.5"/>
			<line class="st2" x1="53.4" y1="-62.4" x2="62.2" y2="-47.1"/>
			<line class="st2" x1="50.8" y1="-51.6" x2="62.2" y2="-47.1"/>
			<line class="st2" x1="53.4" y1="-62.4" x2="50.8" y2="-51.6"/>
			<line class="st2" x1="50.5" y1="-50.2" x2="62.5" y2="-45.3"/>
			<line class="st2" x1="50.5" y1="-39.3" x2="62.5" y2="-45.3"/>
			<line class="st2" x1="50.5" y1="-50.2" x2="50.5" y2="-39.3"/>
			<line class="st2" x1="39.3" y1="-51.4" x2="48.9" y2="-46.4"/>
			<line class="st2" x1="48.8" y1="-35.4" x2="48.9" y2="-46.4"/>
			<line class="st2" x1="39.3" y1="-51.4" x2="48.8" y2="-35.4"/>
			<line class="st2" x1="62.7" y1="-43.6" x2="50.1" y2="-37"/>
			<line class="st2" x1="64.5" y1="-28.5" x2="50.1" y2="-37"/>
			<line class="st2" x1="62.7" y1="-43.6" x2="64.5" y2="-28.5"/>
			<line class="st2" x1="53.5" y1="-27.2" x2="50.3" y2="-35.2"/>
			<line class="st2" x1="42.2" y1="-27.2" x2="50.3" y2="-35.2"/>
			<line class="st2" x1="53.5" y1="-27.2" x2="42.2" y2="-27.2"/>
			<line class="st2" x1="39.8" y1="-47.5" x2="47.1" y2="-34.3"/>
			<line class="st2" x1="42" y1="-29.3" x2="47.1" y2="-34.3"/>
			<line class="st2" x1="39.8" y1="-47.5" x2="42" y2="-29.3"/>
			<line class="st2" x1="55.4" y1="-27.3" x2="52.8" y2="-33.7"/>
			<line class="st2" x1="62.7" y1="-27.3" x2="55.4" y2="-27.3"/>
			<line class="st2" x1="52.8" y1="-33.7" x2="62.7" y2="-27.3"/>
			<line class="st2" x1="44.9" y1="-3.3" x2="58.7" y2="-3.3"/>
			<line class="st2" x1="46.2" y1="7.5" x2="44.9" y2="-3.3"/>
			<line class="st2" x1="58.7" y1="-3.3" x2="46.2" y2="7.5"/>
			<polyline class="st2" points="67.3,-3.3 65.2,-3.3 60.3,-3.3 			"/>
			<line class="st2" x1="69.1" y1="11.5" x2="67.3" y2="-3.3"/>
			<polyline class="st2" points="60.3,-3.3 60.8,-2.4 69.1,11.5 			"/>
			<line class="st2" x1="46.4" y1="9.5" x2="59.6" y2="-1.7"/>
			<polyline class="st2" points="56.1,14.2 47.3,9.9 46.4,9.5 			"/>
			<line class="st2" x1="59.6" y1="-1.7" x2="56.1" y2="14.2"/>
			<line class="st2" x1="60.8" y1="0.3" x2="69.6" y2="15.5"/>
			<line class="st2" x1="58.2" y1="11.1" x2="69.6" y2="15.5"/>
			<line class="st2" x1="60.8" y1="0.3" x2="58.2" y2="11.1"/>
			<line class="st2" x1="57.9" y1="12.5" x2="69.9" y2="17.4"/>
			<line class="st2" x1="57.9" y1="23.4" x2="69.9" y2="17.4"/>
			<line class="st2" x1="57.9" y1="12.5" x2="57.9" y2="23.4"/>
			<line class="st2" x1="46.7" y1="11.3" x2="56.3" y2="16.3"/>
			<line class="st2" x1="56.1" y1="27.3" x2="56.3" y2="16.3"/>
			<line class="st2" x1="46.7" y1="11.3" x2="56.1" y2="27.3"/>
			<line class="st2" x1="70" y1="19.1" x2="57.4" y2="25.6"/>
			<line class="st2" x1="71.8" y1="34.2" x2="57.4" y2="25.6"/>
			<line class="st2" x1="70" y1="19.1" x2="71.8" y2="34.2"/>
			<line class="st2" x1="60.9" y1="35.5" x2="57.7" y2="27.5"/>
			<polyline class="st2" points="49.6,35.5 57,28.2 57.7,27.5 			"/>
			<polyline class="st2" points="60.9,35.5 49.8,35.5 49.6,35.5 			"/>
			<line class="st2" x1="47.2" y1="15.2" x2="54.5" y2="28.4"/>
			<line class="st2" x1="49.3" y1="33.4" x2="54.5" y2="28.4"/>
			<line class="st2" x1="47.2" y1="15.2" x2="49.3" y2="33.4"/>
			<line class="st2" x1="62.8" y1="35.3" x2="60.2" y2="29"/>
			<line class="st2" x1="70.1" y1="35.4" x2="62.8" y2="35.3"/>
			<line class="st2" x1="60.2" y1="29" x2="70.1" y2="35.4"/>
			<line class="st2" x1="80.3" y1="-3.4" x2="94.1" y2="-3.4"/>
			<line class="st2" x1="81.6" y1="7.4" x2="80.3" y2="-3.4"/>
			<line class="st2" x1="94.1" y1="-3.4" x2="81.6" y2="7.4"/>
			<line class="st2" x1="102.7" y1="-3.4" x2="95.6" y2="-3.4"/>
			<line class="st2" x1="104.5" y1="11.4" x2="102.7" y2="-3.4"/>
			<polyline class="st2" points="95.6,-3.4 96.2,-2.5 104.5,11.4 			"/>
			<line class="st2" x1="81.8" y1="9.4" x2="95" y2="-1.8"/>
			<polyline class="st2" points="91.5,14.1 82.7,9.8 81.8,9.4 			"/>
			<line class="st2" x1="95" y1="-1.8" x2="91.5" y2="14.1"/>
			<line class="st2" x1="96.1" y1="0.2" x2="104.9" y2="15.4"/>
			<line class="st2" x1="93.5" y1="11" x2="104.9" y2="15.4"/>
			<line class="st2" x1="96.1" y1="0.2" x2="93.5" y2="11"/>
			<line class="st2" x1="93.2" y1="12.4" x2="105.2" y2="17.3"/>
			<line class="st2" x1="93.2" y1="23.3" x2="105.2" y2="17.3"/>
			<line class="st2" x1="93.2" y1="12.4" x2="93.2" y2="23.3"/>
			<line class="st2" x1="82" y1="11.2" x2="91.6" y2="16.2"/>
			<line class="st2" x1="91.5" y1="27.2" x2="91.6" y2="16.2"/>
			<line class="st2" x1="82" y1="11.2" x2="91.5" y2="27.2"/>
			<line class="st2" x1="105.4" y1="19" x2="92.8" y2="25.6"/>
			<line class="st2" x1="107.2" y1="34.1" x2="92.8" y2="25.6"/>
			<line class="st2" x1="105.4" y1="19" x2="107.2" y2="34.1"/>
			<line class="st2" x1="96.2" y1="35.4" x2="93" y2="27.4"/>
			<polyline class="st2" points="84.9,35.4 92.3,28.1 93,27.4 			"/>
			<line class="st2" x1="96.2" y1="35.4" x2="84.9" y2="35.4"/>
			<line class="st2" x1="82.5" y1="15.1" x2="89.8" y2="28.3"/>
			<line class="st2" x1="84.7" y1="33.3" x2="89.8" y2="28.3"/>
			<line class="st2" x1="82.5" y1="15.1" x2="84.7" y2="33.3"/>
			<line class="st2" x1="98.1" y1="35.2" x2="95.5" y2="28.9"/>
			<line class="st2" x1="105.4" y1="35.3" x2="98.1" y2="35.2"/>
			<line class="st2" x1="95.5" y1="28.9" x2="105.4" y2="35.3"/>
			<line class="st2" x1="42.5" y1="-25.6" x2="60.3" y2="-25.6"/>
			<line class="st2" x1="43.7" y1="-16" x2="60.3" y2="-25.6"/>
			<line class="st2" x1="42.5" y1="-25.6" x2="43.7" y2="-16"/>
			<line class="st2" x1="64.7" y1="-26.4" x2="57.8" y2="-22.2"/>
			<line class="st2" x1="70.5" y1="-16.6" x2="64.7" y2="-26.4"/>
			<line class="st2" x1="57.8" y1="-22.2" x2="70.5" y2="-16.6"/>
			<line class="st2" x1="43.8" y1="-13.8" x2="56.5" y2="-20.8"/>
			<line class="st2" x1="45" y1="-4.8" x2="43.8" y2="-13.8"/>
			<line class="st2" x1="56.5" y1="-20.8" x2="45" y2="-4.8"/>
			<line class="st2" x1="47.5" y1="-4.8" x2="58.7" y2="-20.2"/>
			<line class="st2" x1="59.5" y1="-4.7" x2="58.7" y2="-20.2"/>
			<line class="st2" x1="47.5" y1="-4.8" x2="59.5" y2="-4.7"/>
			<line class="st2" x1="60.3" y1="-19.4" x2="72.6" y2="-14.4"/>
			<line class="st2" x1="60.6" y1="-14.4" x2="60.3" y2="-19.4"/>
			<line class="st2" x1="72.6" y1="-14.4" x2="60.6" y2="-14.4"/>
			<line class="st2" x1="60.9" y1="-12.5" x2="61.2" y2="-5.2"/>
			<line class="st2" x1="78.4" y1="-12.8" x2="61.2" y2="-5.2"/>
			<line class="st2" x1="60.9" y1="-12.5" x2="78.4" y2="-12.8"/>
			<line class="st2" x1="65.2" y1="-4.8" x2="78.6" y2="-4.9"/>
			<line class="st2" x1="81.9" y1="-12" x2="65.2" y2="-4.8"/>
			<polyline class="st2" points="78.6,-4.9 78.8,-5.3 81.9,-12 			"/>
			<polyline class="st2" points="82,-26.4 67.3,-26.4 72.6,-16 			"/>
			<line class="st2" x1="72.6" y1="-16" x2="82" y2="-26.4"/>
			<line class="st2" x1="74.1" y1="-15" x2="81" y2="-22.7"/>
			<line class="st2" x1="85.9" y1="-13.4" x2="74.1" y2="-15"/>
			<line class="st2" x1="81" y1="-22.7" x2="85.9" y2="-13.4"/>
			<line class="st2" x1="88" y1="-13.9" x2="82.4" y2="-24"/>
			<line class="st2" x1="82.4" y1="-24" x2="85" y2="-26.4"/>
			<line class="st2" x1="85" y1="-26.4" x2="88" y2="-13.9"/>
			<line class="st2" x1="100.1" y1="-26.4" x2="86.7" y2="-26.4"/>
			<line class="st2" x1="89.7" y1="-14.4" x2="86.7" y2="-26.4"/>
			<line class="st2" x1="100.1" y1="-26.4" x2="89.7" y2="-14.4"/>
			<line class="st2" x1="91.7" y1="-13.4" x2="100.2" y2="-23.8"/>
			<line class="st2" x1="101.8" y1="-11.8" x2="91.7" y2="-13.4"/>
			<line class="st2" x1="100.2" y1="-23.8" x2="101.8" y2="-11.8"/>
			<line class="st2" x1="102.8" y1="-5.3" x2="102" y2="-10.5"/>
			<line class="st2" x1="90.4" y1="-5.3" x2="102.8" y2="-5.3"/>
			<line class="st2" x1="102" y1="-10.5" x2="90.4" y2="-5.3"/>
			<line class="st2" x1="86.7" y1="-12.5" x2="98.8" y2="-11.1"/>
			<line class="st2" x1="89.9" y1="-6.8" x2="86.7" y2="-12.5"/>
			<line class="st2" x1="98.8" y1="-11.1" x2="89.9" y2="-6.8"/>
			<line class="st2" x1="84.5" y1="-12.1" x2="88.7" y2="-5.1"/>
			<line class="st2" x1="80.3" y1="-4.7" x2="84.5" y2="-12.1"/>
			<line class="st2" x1="88.7" y1="-5.1" x2="80.3" y2="-4.7"/>
			<line class="st2" x1="49.8" y1="37.1" x2="67.6" y2="37.1"/>
			<line class="st2" x1="51" y1="46.6" x2="67.6" y2="37.1"/>
			<line class="st2" x1="49.8" y1="37.1" x2="51" y2="46.6"/>
			<polyline class="st2" points="72,36.3 68.4,38.4 65.1,40.5 			"/>
			<line class="st2" x1="77.8" y1="46.1" x2="72" y2="36.3"/>
			<line class="st2" x1="65.1" y1="40.5" x2="77.8" y2="46.1"/>
			<line class="st2" x1="51.1" y1="48.9" x2="63.8" y2="41.8"/>
			<line class="st2" x1="52.3" y1="57.9" x2="51.1" y2="48.9"/>
			<line class="st2" x1="63.8" y1="41.8" x2="52.3" y2="57.9"/>
			<line class="st2" x1="54.8" y1="57.8" x2="66.1" y2="42.5"/>
			<line class="st2" x1="66.8" y1="58" x2="66.1" y2="42.5"/>
			<line class="st2" x1="54.8" y1="57.8" x2="66.8" y2="58"/>
			<polyline class="st2" points="67.6,43.3 77.3,47.3 79.3,48.1 79.9,48.3 			"/>
			<line class="st2" x1="67.9" y1="48.3" x2="67.6" y2="43.3"/>
			<line class="st2" x1="79.9" y1="48.3" x2="67.9" y2="48.3"/>
			<line class="st2" x1="68.2" y1="50.2" x2="68.6" y2="57.5"/>
			<line class="st2" x1="85.7" y1="49.9" x2="68.6" y2="57.5"/>
			<line class="st2" x1="68.2" y1="50.2" x2="85.7" y2="49.9"/>
			<line class="st2" x1="72.5" y1="57.8" x2="85.9" y2="57.8"/>
			<line class="st2" x1="89.2" y1="50.7" x2="72.5" y2="57.8"/>
			<line class="st2" x1="85.9" y1="57.8" x2="89.2" y2="50.7"/>
			<line class="st2" x1="74.8" y1="36.7" x2="79.9" y2="46.6"/>
			<polyline class="st2" points="88.8,36.8 84.9,36.8 74.8,36.7 			"/>
			<line class="st2" x1="79.9" y1="46.6" x2="88.8" y2="36.8"/>
			<line class="st2" x1="81.4" y1="47.7" x2="88.4" y2="40"/>
			<line class="st2" x1="93.2" y1="49.3" x2="81.4" y2="47.7"/>
			<line class="st2" x1="88.4" y1="40" x2="93.2" y2="49.3"/>
			<line class="st2" x1="89.7" y1="38.7" x2="92.3" y2="36.3"/>
			<line class="st2" x1="95.3" y1="48.8" x2="89.7" y2="38.7"/>
			<line class="st2" x1="92.3" y1="36.3" x2="95.3" y2="48.8"/>
			<line class="st2" x1="106.9" y1="37.1" x2="94.2" y2="37.1"/>
			<line class="st2" x1="97" y1="48.3" x2="94.2" y2="37.1"/>
			<line class="st2" x1="106.9" y1="37.1" x2="97" y2="48.3"/>
			<line class="st2" x1="99" y1="49.3" x2="107.5" y2="38.9"/>
			<line class="st2" x1="109.1" y1="50.9" x2="99" y2="49.3"/>
			<line class="st2" x1="107.5" y1="38.9" x2="109.1" y2="50.9"/>
			<line class="st2" x1="110.1" y1="57.4" x2="109.3" y2="52.2"/>
			<line class="st2" x1="97.7" y1="57.3" x2="110.1" y2="57.4"/>
			<line class="st2" x1="109.3" y1="52.2" x2="97.7" y2="57.3"/>
			<line class="st2" x1="94.1" y1="50.2" x2="106.1" y2="51.6"/>
			<line class="st2" x1="97.2" y1="55.8" x2="94.1" y2="50.2"/>
			<line class="st2" x1="106.1" y1="51.6" x2="97.2" y2="55.8"/>
			<line class="st2" x1="91.8" y1="50.5" x2="96" y2="57.6"/>
			<line class="st2" x1="87.6" y1="58" x2="91.8" y2="50.5"/>
			<line class="st2" x1="96" y1="57.6" x2="87.6" y2="58"/>
			<line class="st2" x1="-56.1" y1="30.2" x2="-47" y2="34.1"/>
			<line class="st2" x1="-54" y1="47.4" x2="-47" y2="34.1"/>
			<line class="st2" x1="-56.1" y1="30.2" x2="-54" y2="47.4"/>
			<line class="st2" x1="-45.4" y1="31.3" x2="-28.3" y2="38.1"/>
			<line class="st2" x1="-37.4" y1="43.3" x2="-28.3" y2="38.1"/>
			<line class="st2" x1="-45.4" y1="31.3" x2="-37.4" y2="43.3"/>
			<line class="st2" x1="-45" y1="34.7" x2="-50.8" y2="44.7"/>
			<line class="st2" x1="-35.9" y1="48.6" x2="-45" y2="34.7"/>
			<line class="st2" x1="-50.8" y1="44.7" x2="-35.9" y2="48.6"/>
			<line class="st2" x1="-53.7" y1="49.6" x2="-51.4" y2="46.3"/>
			<line class="st2" x1="-40.9" y1="49.2" x2="-51.4" y2="46.3"/>
			<line class="st2" x1="-53.7" y1="49.6" x2="-40.9" y2="49.2"/>
			<line class="st2" x1="-52.7" y1="57.5" x2="-53.6" y2="51"/>
			<line class="st2" x1="-35.9" y1="50.2" x2="-53.6" y2="51"/>
			<line class="st2" x1="-52.7" y1="57.5" x2="-35.9" y2="50.2"/>
			<line class="st2" x1="-48.6" y1="57.5" x2="-31" y2="50.2"/>
			<line class="st2" x1="-27.5" y1="57.4" x2="-31" y2="50.2"/>
			<line class="st2" x1="-48.6" y1="57.5" x2="-27.5" y2="57.4"/>
			<line class="st2" x1="-32.8" y1="49.4" x2="-35.9" y2="44.1"/>
			<line class="st2" x1="-20.6" y1="46.7" x2="-32.8" y2="49.4"/>
			<line class="st2" x1="-35.9" y1="44.1" x2="-20.6" y2="46.7"/>
			<line class="st2" x1="-30" y1="35.4" x2="-20.6" y2="35.4"/>
			<line class="st2" x1="-17.3" y1="43.1" x2="-30" y2="35.4"/>
			<line class="st2" x1="-20.6" y1="35.4" x2="-17.3" y2="43.1"/>
			<line class="st2" x1="-33.6" y1="43" x2="-26.7" y2="39.3"/>
			<line class="st2" x1="-18.9" y1="44.7" x2="-26.7" y2="39.3"/>
			<line class="st2" x1="-33.6" y1="43" x2="-18.9" y2="44.7"/>
			<line class="st2" x1="-12.8" y1="33.6" x2="-20.7" y2="29.9"/>
			<line class="st2" x1="-20.1" y1="34" x2="-20.7" y2="29.9"/>
			<line class="st2" x1="-12.8" y1="33.6" x2="-20.1" y2="34"/>
			<line class="st2" x1="2" y1="35.4" x2="-10" y2="31.3"/>
			<line class="st2" x1="-6.1" y1="42.7" x2="2" y2="35.4"/>
			<line class="st2" x1="-10" y1="31.3" x2="-6.1" y2="42.7"/>
			<line class="st2" x1="-18.2" y1="35.8" x2="-10.4" y2="34.6"/>
			<line class="st2" x1="-7.6" y1="43.3" x2="-10.4" y2="34.6"/>
			<line class="st2" x1="-18.2" y1="35.8" x2="-7.6" y2="43.3"/>
			<line class="st2" x1="-9" y1="44.8" x2="-16.8" y2="39"/>
			<line class="st2" x1="-12.5" y1="50.2" x2="-16.8" y2="39"/>
			<line class="st2" x1="-9" y1="44.8" x2="-12.5" y2="50.2"/>
			<line class="st2" x1="-20.4" y1="49" x2="-28.9" y2="50.2"/>
			<line class="st2" x1="-25.3" y1="57.4" x2="-28.9" y2="50.2"/>
			<line class="st2" x1="-20.4" y1="49" x2="-25.3" y2="57.4"/>
			<line class="st2" x1="-19" y1="48.1" x2="-16.3" y2="44.9"/>
			<line class="st2" x1="-12.4" y1="57.4" x2="-16.3" y2="44.9"/>
			<line class="st2" x1="-19" y1="48.1" x2="-12.4" y2="57.4"/>
			<line class="st2" x1="-22.9" y1="57.4" x2="-19.3" y2="50.6"/>
			<line class="st2" x1="-14.6" y1="57.4" x2="-19.3" y2="50.6"/>
			<line class="st2" x1="-22.9" y1="57.4" x2="-14.6" y2="57.4"/>
			<line class="st2" x1="5.5" y1="35" x2="14.9" y2="35"/>
			<line class="st2" x1="18.2" y1="42.6" x2="5.5" y2="35"/>
			<line class="st2" x1="14.9" y1="35" x2="18.2" y2="42.6"/>
			<line class="st2" x1="22.7" y1="33.1" x2="14.8" y2="29.4"/>
			<line class="st2" x1="15.4" y1="33.6" x2="14.8" y2="29.4"/>
			<line class="st2" x1="22.7" y1="33.1" x2="15.4" y2="33.6"/>
			<line class="st2" x1="37.5" y1="35" x2="25.5" y2="30.9"/>
			<line class="st2" x1="29.4" y1="42.2" x2="37.5" y2="35"/>
			<line class="st2" x1="25.5" y1="30.9" x2="29.4" y2="42.2"/>
			<line class="st2" x1="17.3" y1="35.4" x2="25.1" y2="34.2"/>
			<line class="st2" x1="27.9" y1="42.9" x2="25.1" y2="34.2"/>
			<line class="st2" x1="17.3" y1="35.4" x2="27.9" y2="42.9"/>
			<line class="st2" x1="26.5" y1="44.4" x2="18.7" y2="38.5"/>
			<line class="st2" x1="23" y1="49.7" x2="18.7" y2="38.5"/>
			<line class="st2" x1="26.5" y1="44.4" x2="23" y2="49.7"/>
			<line class="st2" x1="16.6" y1="47.6" x2="19.2" y2="44.5"/>
			<line class="st2" x1="23.1" y1="57" x2="19.2" y2="44.5"/>
			<line class="st2" x1="16.6" y1="47.6" x2="23.1" y2="57"/>
			<line class="st2" x1="12.7" y1="57" x2="16.2" y2="50.2"/>
			<line class="st2" x1="20.9" y1="57" x2="16.2" y2="50.2"/>
			<line class="st2" x1="12.7" y1="57" x2="20.9" y2="57"/>
			<line class="st2" x1="31.2" y1="57.4" x2="40.1" y2="57.4"/>
			<line class="st2" x1="39.2" y1="49.4" x2="40.1" y2="57.4"/>
			<line class="st2" x1="31.2" y1="57.4" x2="39.2" y2="49.4"/>
			<line class="st2" x1="37.7" y1="37.3" x2="39" y2="47.8"/>
			<line class="st2" x1="28.1" y1="45.4" x2="37.7" y2="37.3"/>
			<line class="st2" x1="39" y1="47.8" x2="28.1" y2="45.4"/>
			<line class="st2" x1="23.6" y1="50.7" x2="25.1" y2="57.4"/>
			<line class="st2" x1="29.1" y1="57.4" x2="25.1" y2="57.4"/>
			<line class="st2" x1="23.6" y1="50.7" x2="29.1" y2="57.4"/>
			<line class="st2" x1="27.8" y1="46.7" x2="30.2" y2="55.2"/>
			<line class="st2" x1="25.1" y1="49.9" x2="27.8" y2="46.7"/>
			<line class="st2" x1="30.2" y1="55.2" x2="25.1" y2="49.9"/>
			<line class="st2" x1="32" y1="54.1" x2="30" y2="47.5"/>
			<line class="st2" x1="36.5" y1="49.1" x2="30" y2="47.5"/>
			<line class="st2" x1="32" y1="54.1" x2="36.5" y2="49.1"/>
			<line class="st2" x1="-4" y1="43.3" x2="3.5" y2="35.8"/>
			<line class="st2" x1="11.9" y1="41.4" x2="3.5" y2="35.8"/>
			<line class="st2" x1="-4" y1="43.3" x2="11.9" y2="41.4"/>
			<line class="st2" x1="13.5" y1="42" x2="17.1" y2="43.9"/>
			<line class="st2" x1="12.7" y1="50.6" x2="17.1" y2="43.9"/>
			<line class="st2" x1="13.5" y1="42" x2="12.7" y2="50.6"/>
			<line class="st2" x1="12.7" y1="52.3" x2="10.9" y2="57.4"/>
			<line class="st2" x1="1.1" y1="57.4" x2="10.9" y2="57.4"/>
			<line class="st2" x1="12.7" y1="52.3" x2="1.1" y2="57.4"/>
			<line class="st2" x1="-6.1" y1="44.6" x2="-12.1" y2="52.3"/>
			<line class="st2" x1="-10.7" y1="57.4" x2="-12.1" y2="52.3"/>
			<line class="st2" x1="-6.1" y1="44.6" x2="-10.7" y2="57.4"/>
			<line class="st2" x1="-4" y1="45.4" x2="-9" y2="57.4"/>
			<line class="st2" x1="-0.2" y1="57.4" x2="-9" y2="57.4"/>
			<line class="st2" x1="-4" y1="45.4" x2="-0.2" y2="57.4"/>
			<line class="st2" x1="-2.1" y1="44.9" x2="1.1" y2="55.7"/>
			<line class="st2" x1="10.9" y1="42.9" x2="-2.1" y2="44.9"/>
			<line class="st2" x1="1.1" y1="55.7" x2="10.9" y2="42.9"/>
			<line class="st2" x1="5" y1="53.4" x2="10.9" y2="45.4"/>
			<line class="st2" x1="10.9" y1="51" x2="10.9" y2="45.4"/>
			<line class="st2" x1="5" y1="53.4" x2="10.9" y2="51"/>
		</g>
	</g>
</symbol>
<use xlink:href="#Logo"  width="259.3" height="181.4" x="-129.6" y="-90.7" transform="matrix(3.046 0 0 -3.046 394.6665 275.9812)" style="overflow:visible;"/>
</svg>
